<?xml version="1.0" encoding="UTF-8"?>
<svg xmlns="http://www.w3.org/2000/svg" viewBox="0 0 64 64" role="img" aria-label="mi">
  <defs>
    <filter id="mi-soft" x="-20%" y="-20%" width="140%" height="140%">
      <feGaussianBlur in="SourceAlpha" stdDeviation="0.6" result="b"/>
      <feOffset dy="0.4"/>
      <feMerge><feMergeNode/><feMergeNode in="SourceGraphic"/></feMerge>
    </filter>
  </defs>
  <rect width="64" height="64" fill="#f3efe4"/>
     <rect x="8" y="10" width="48" height="3" fill="#1c2f4a"/>
     <rect x="8" y="15" width="48" height="1.2" fill="#1c2f4a"/>
     <rect x="8" y="50" width="48" height="1.2" fill="#1c2f4a"/>
     <rect x="8" y="53" width="48" height="2.2" fill="#1c2f4a"/>
     <path fill="#1c2f4a" d="M18 42V22h6.4c4.6 0 7.4 2.6 7.4 6.6 0 4.2-3 6.8-7.6 6.8H22.6V42H18zm4.6-10.2h1.6c2.2 0 3.5-1.2 3.5-3.2s-1.3-3.1-3.5-3.1h-1.6v6.3zM36.2 42V22h12v3.6H40.6v4.2h6.8v3.4h-6.8V42h-4.4z"/>
</svg>